<svg width="22" height="22" viewBox="0 0 22 22" fill="none" xmlns="http://www.w3.org/2000/svg">
<g id="Menu_Open" clip-path="url(#clip0_12_16688)">
<path id="Vector" d="M20 0H2C0.89543 0 0 0.89543 0 2V20C0 21.1046 0.89543 22 2 22H20C21.1046 22 22 21.1046 22 20V2C22 0.89543 21.1046 0 20 0Z" fill="#F8F4EA"/>
<path id="Vector_2" d="M2 5H20V7H2V5ZM2 10H20V12H2V10ZM2 15H20V17H2V15Z" fill="#284C43"/>
<path id="Vector_3" d="M2.3809 4.01017C2.60505 3.98412 2.89887 4.01197 3.12218 4.05021C3.19216 4.06207 3.15672 4.11508 3.20503 4.12565C3.29952 4.14626 3.38754 4.12026 3.48091 4.14481C3.51185 4.15321 3.47334 4.23717 3.50578 4.24406C3.68358 4.28116 3.85179 4.25978 4.03191 4.27763C4.9191 4.36569 5.79119 4.3972 6.68923 4.43546C6.98534 4.448 7.3453 4.52421 7.65115 4.49088C7.68685 4.48692 7.66556 4.41322 7.67236 4.40714C7.7789 4.31415 7.74348 4.46293 7.81304 4.4827C8.08915 4.56075 8.39617 4.56754 8.66189 4.5391C8.77493 4.52678 8.66159 4.3804 8.77542 4.46256C8.78332 4.46811 8.75464 4.54638 8.78564 4.55472C8.85594 4.5735 8.98933 4.55951 9.04382 4.56571C9.14883 4.57806 9.1662 4.57727 9.26553 4.57816C9.40131 4.58006 9.56281 4.61897 9.70849 4.60123C9.73959 4.59721 9.69842 4.51699 9.74801 4.50333C9.79765 4.4897 9.92896 4.4965 9.97323 4.51542C10.0175 4.53434 9.99866 4.5974 10.0065 4.61185C10.071 4.73385 10.2229 4.56488 10.2424 4.56071C10.5987 4.48951 10.9043 4.58576 11.2388 4.58549C11.4927 4.58507 11.7642 4.5533 12.0059 4.55765C12.2937 4.56316 12.5377 4.60663 12.8173 4.59916C12.8468 4.59846 12.8123 4.50413 12.8483 4.50309C13.2313 4.49211 13.6116 4.50239 13.9929 4.56608C14.0311 4.57255 13.9818 4.65537 14.02 4.66678C14.2539 4.73485 14.624 4.89836 14.763 4.53776C14.9214 4.55184 15.1138 4.56639 15.2555 4.63907C15.3469 4.68586 15.2582 4.77608 15.3704 4.73758C15.3958 4.72901 15.3628 4.64999 15.4008 4.6431C15.5607 4.61418 15.7353 4.63986 15.8935 4.59904C15.9257 4.59055 15.9169 4.51974 15.926 4.50699C16.0026 4.40374 16.1301 4.57443 16.1579 4.58683C16.3696 4.67932 16.5242 4.64292 16.7214 4.64518C16.7672 4.64574 16.7131 4.55064 16.7572 4.54777C16.9855 4.53414 17.2221 4.54231 17.4458 4.58451C17.4955 4.59412 17.4498 4.67513 17.4736 4.68387C17.5784 4.72142 17.6016 4.56842 17.7021 4.60148C17.7233 4.60825 17.7114 4.6776 17.7153 4.68522C17.7758 4.80478 17.8283 4.63537 17.8439 4.63163C18.0407 4.58052 18.1666 4.75738 18.3567 4.73234C18.3795 4.72916 18.3282 4.64141 18.3921 4.63785C18.8182 4.61363 19.2688 4.63773 19.6905 4.70792C19.7561 4.71872 19.7093 4.78463 19.7134 4.79276C19.7806 4.91973 19.8242 4.74961 19.8455 4.7432C19.8984 4.72874 19.9502 4.73284 19.9999 4.73903L20.2472 4.72667L20.2609 5C20.2473 5.10886 20.2237 5.20779 20.3628 5.28646C20.3064 5.85964 20.3685 6.43071 20.3014 7L20.3157 7.28574L19.9999 7.30153C19.8597 7.28503 19.7196 7.26069 19.5796 7.22482C19.5706 7.22272 19.5868 7.13893 19.5688 7.1351C19.3524 7.08805 19.394 7.21827 19.2508 7.37753C19.2147 7.41752 19.105 7.22524 19.0953 7.21115C19.06 7.15921 19.0966 7.03456 19.0848 7.0245C18.9868 6.94552 19.0028 7.35774 18.8706 7.35787C18.8664 7.35719 18.8838 7.28131 18.8727 7.27377C18.8382 7.25008 18.804 7.28023 18.7703 7.25411C18.6931 7.19368 18.6656 6.99337 18.5477 7.10995C18.5328 7.12508 18.5556 7.35891 18.4375 7.34786C18.3905 7.34326 18.1822 7.34727 18.1238 7.33212C18.0655 7.31698 18.1055 7.24163 18.1014 7.23837C17.9443 7.13873 18.0038 7.09743 17.9251 6.94992C17.8464 6.80296 17.8683 7.15347 17.8362 7.19259C17.804 7.2316 17.6888 7.14939 17.6605 7.12081C17.6323 7.09222 17.6675 7.04434 17.6424 7.02816C17.4756 6.92245 17.5692 7.20215 17.5142 7.25778C17.3846 7.3895 17.2837 7.12956 17.1651 7.10409C17.133 7.09721 17.1592 7.15641 17.1306 7.16195C17.0174 7.1831 16.9493 7.10199 16.8205 7.17636C16.7995 7.18848 16.6954 7.34476 16.628 7.23007C16.6184 7.21353 16.6456 7.14875 16.5973 7.13424C16.5252 7.11247 16.3954 7.09831 16.3179 7.11996C16.2607 7.13598 16.3263 7.24272 16.2543 7.20956C16.2223 7.19475 16.2816 7.13231 16.2215 7.10971C16.1617 7.08711 16.0088 7.08985 15.9506 7.09201C15.8926 7.09421 15.9244 7.17517 15.9197 7.18063C15.8913 7.21187 15.7798 7.25092 15.77 7.25082C15.2732 7.2607 14.8152 7.12423 14.3315 7.1694C14.2936 7.17283 14.3189 7.2582 14.3131 7.25961C14.1831 7.29538 14.2856 7.06838 14.1948 6.9924C14.2079 7.16566 14.1543 7.13428 14.0628 7.15329C14.0187 7.16258 14.0427 7.22967 14.0387 7.23654C13.9733 7.33843 13.9278 7.20682 13.916 7.1799C13.8727 7.08086 13.8256 7.19788 13.7961 7.13168C13.7666 7.06597 13.8344 6.96857 13.7467 6.96981C13.722 7.03183 13.7872 7.19391 13.7206 7.22018C13.4691 7.31954 12.9997 7.19237 12.7976 7.17916C12.5958 7.16597 12.5306 7.17741 12.413 7.15499C12.2007 7.11447 12.2785 7.23472 12.1466 7.28976C12.0144 7.34479 12.0786 7.04892 12.0596 6.98532C12.041 6.92174 12.0206 6.98719 11.9974 6.95224C11.9742 6.91729 12.0243 6.87405 11.9699 6.86093C11.9155 6.84782 11.7666 6.96093 11.7473 7.02743C11.7065 7.16833 11.7736 7.31621 11.6295 7.26425C11.6212 7.26116 11.6481 7.18336 11.6164 7.1755C11.3644 7.11561 11.1025 7.1119 10.8508 7.05892C10.8162 7.05152 10.8472 6.96497 10.827 6.95968C10.6172 6.90432 10.6922 7.05026 10.5772 7.21237C10.6031 6.99663 10.5395 6.86464 10.3803 6.86337C10.2845 6.86253 10.301 6.95675 10.2391 7.02316C10.2205 7.04318 10.1528 6.97848 10.1405 7.02279C10.1001 7.16764 10.1639 7.32979 9.9997 7.26522C9.9925 7.26215 10.0154 7.18287 9.99054 7.17807C9.82967 7.14664 9.81042 7.29814 9.63654 7.31649C9.50024 7.33089 9.25783 7.2385 9.10263 7.22348C9.1059 6.98093 8.9593 7.03647 8.89984 7.2037C8.79912 7.19685 8.69034 7.20631 8.59299 7.18319C8.55948 7.17531 8.58149 7.10509 8.57727 7.0975C8.51248 6.97847 8.4687 7.14117 8.44696 7.14755C8.21133 7.20955 8.01936 7.08624 7.79449 7.20675C7.78651 7.21109 7.77358 7.37957 7.71347 7.25656C7.70958 7.24808 7.78385 7.17142 7.67807 7.16549C7.57227 7.15955 7.37283 7.06923 7.22595 7.1473C7.19041 7.1661 7.1005 7.30287 7.02835 7.19601C7.01873 7.1815 7.02925 7.13318 7.01538 7.10629C6.97052 7.02061 6.94603 7.1909 6.89331 7.04623C6.84058 6.90156 6.73091 6.79322 6.58279 6.89303C6.57807 6.89593 6.54301 7.03091 6.49642 7.02877C6.42206 7.02525 6.3165 6.99713 6.23885 6.99801C6.20168 6.99848 6.22547 7.08229 6.21902 7.08383C5.96905 7.13079 5.79115 7.05607 5.52337 7.02365C5.47428 7.01754 5.33321 7.13183 5.23818 7.04147C5.13383 6.94255 5.24106 6.53109 5.00121 6.62912C4.90447 6.66833 4.782 7.19035 4.60814 6.91989C4.27098 6.98691 3.95916 6.84849 3.62105 6.94418C3.60585 6.94842 3.55777 7.09411 3.52202 7.09213C3.46896 7.0889 3.43983 7.02081 3.40193 7.01632C3.24316 6.99581 3.09786 7.05407 2.94478 7.04501C2.88666 7.04172 2.90698 6.97131 2.83766 6.96737C2.76839 6.9635 2.72219 7.05622 2.62831 7.01144C2.55741 6.97731 2.48652 6.7878 2.39241 6.76571C2.38882 6.95264 2.32419 6.94879 2.20931 6.99813C2.18722 7.00771 2.2109 7.07277 2.20046 7.08065C2.15794 7.11419 2.1186 7.06026 2.07823 7.09677C2.06841 7.10553 2.06795 7.16937 2.05992 7.18014C2.04211 7.20467 2.02129 7.21302 1.9999 7.21153L1.79945 7.22155L1.78837 7C1.79261 6.93941 1.87587 6.87426 1.89434 6.85998C1.9893 6.78595 1.90627 6.75136 1.94366 6.69457C1.98105 6.63788 2.02778 6.72265 2.05047 6.65643C2.0974 6.51916 2.08709 6.3428 2.09002 6.20339C2.0908 6.14777 2.00559 6.18572 2.00372 6.17776C1.98211 6.06274 2.07275 5.94643 1.90301 5.88265C2.34189 5.80291 1.86044 5.81329 1.9483 5.64889C1.95541 5.63594 2.16295 5.61946 2.19342 5.66918C2.22386 5.7189 2.15898 5.79429 2.20648 5.86327C2.21762 5.87961 2.4121 5.97319 2.42388 5.98595C2.51595 6.08597 2.20581 6.10014 2.18878 6.10543C2.00495 6.16543 2.21446 6.27979 2.22894 6.3099C2.29527 6.44766 2.25166 6.5647 2.29901 6.67992C2.32961 6.75528 2.53276 6.76266 2.52654 6.82183C2.51894 6.89462 2.47535 6.94988 2.43589 7L1.9999 6.56401C2.08524 6.63119 2.1557 6.68639 2.27248 6.53158C2.31222 6.47917 2.27273 6.25713 2.41515 6.43173C2.4241 6.44274 2.52983 6.60246 2.59093 6.50143C2.5986 6.48869 2.59836 6.42398 2.60848 6.41855C2.67629 6.38338 2.72152 6.43494 2.7954 6.41025C2.86927 6.38555 2.95809 6.34875 3.04244 6.37069C3.09326 6.38382 3.15849 6.50438 3.18282 6.5339C3.25152 6.61893 3.32519 6.47952 3.36775 6.58249C3.41068 6.68597 3.32676 6.84313 3.43932 6.91C3.44349 6.74188 3.45307 6.56931 3.45977 6.40024C3.70643 6.40616 3.94913 6.46052 4.19661 6.45309C4.2273 6.452 4.19592 6.36162 4.22881 6.35812C4.36758 6.34376 4.4888 6.40819 4.63271 6.38254C4.74411 6.36233 4.86626 6.26663 4.98275 6.24252C5.0539 6.4349 5.22675 6.36959 5.35232 6.38717C5.3963 6.39325 5.39336 6.44463 5.42464 6.46139C5.54265 6.52339 5.48736 6.35338 5.51971 6.32663C5.65851 6.21244 5.67039 6.59724 5.83404 6.58774C5.84271 6.58736 5.94868 6.38225 5.96328 6.36947C6.05602 6.28618 5.97863 6.44087 6.03668 6.45602C6.14265 6.48372 6.21629 6.5327 6.34063 6.47262C6.37689 6.45483 6.46386 6.32698 6.53427 6.42587C6.54353 6.43882 6.53841 6.50662 6.54586 6.51059C6.68081 6.57677 6.68436 6.36374 6.76147 6.29159C6.8386 6.21946 6.95772 6.36652 6.98196 6.4089C7.04538 6.51855 6.93336 6.45576 6.92993 6.46652C6.88958 6.59457 6.97646 6.57252 7.04284 6.58334C7.05245 6.79222 7.14529 6.77968 7.11166 6.59372C7.10783 6.5734 7.05617 6.59288 7.04284 6.58334C7.10111 6.3784 7.20314 6.35216 7.31582 6.54367C7.36857 6.63343 7.3187 6.73808 7.47894 6.6998C7.55166 6.68251 7.52356 6.53869 7.58773 6.49948C7.73435 6.41001 7.92486 6.54418 8.07602 6.52304C8.13088 6.51536 8.07743 6.43664 8.11493 6.42868C8.21443 6.40731 8.30217 6.46638 8.4021 6.43612C8.41115 6.43328 8.38903 6.35087 8.4201 6.34982C8.65567 6.34025 8.8608 6.39304 9.10675 6.3945C9.22559 6.39517 9.43805 6.34972 9.56116 6.35885C9.77452 6.37421 10.037 6.49405 10.2193 6.46493C10.3382 6.4463 10.3121 6.36387 10.363 6.30771C10.4613 6.19884 10.6353 6.39384 10.6587 6.42404C10.6594 6.42504 10.5571 6.44447 10.6117 6.48678C10.6435 6.57495 10.6576 6.42442 10.6587 6.42404C10.6741 6.44355 10.8785 6.46226 10.919 6.4465C10.9411 6.43789 10.9288 6.35979 10.9402 6.35678C11.2135 6.28689 11.4872 6.26704 11.7644 6.30356C11.7693 6.30513 11.7619 6.39249 11.7734 6.39511C11.9338 6.43395 12.0366 6.32709 12.1689 6.26364C12.3012 6.20022 12.4061 6.22146 12.4844 6.37143C12.5843 6.35255 12.7275 6.41884 12.8099 6.45907C12.8923 6.4993 12.9038 6.32926 12.9111 6.3259C13.1373 6.2183 13.268 6.31563 13.5027 6.33078C13.6142 6.33827 13.8355 6.31361 13.9563 6.29501C14.0518 6.28003 14.1093 6.31988 14.1972 6.2944C14.2091 6.291 14.1971 6.21529 14.2008 6.21237C14.2989 6.12178 14.2517 6.30688 14.272 6.33993C14.3455 6.46015 14.3909 6.52417 14.5166 6.46762C14.5456 6.45467 14.6301 6.18816 14.6829 6.17258C14.7517 6.1528 14.7257 6.24833 14.7977 6.22519C14.8038 6.22329 14.8026 6.16436 14.847 6.16696C15.0531 6.17825 15.2779 6.21254 15.4921 6.20663C15.5214 6.20605 15.4839 6.11258 15.5261 6.1102C15.7245 6.09912 15.942 6.10258 16.1353 6.14633C16.1828 6.15739 16.153 6.22284 16.1633 6.24228C16.2267 6.35986 16.3167 6.18901 16.3315 6.18576C16.6854 6.10366 16.9562 6.25827 17.3169 6.18466C17.3365 6.18034 17.4877 5.99719 17.5551 6.15426C17.5597 6.16472 17.6264 6.32542 17.6854 6.21554C17.6891 6.20867 17.6475 6.12593 17.72 6.13437C17.7926 6.14278 17.9093 6.08753 18.0091 6.17843C18.0406 6.20707 18.1152 6.36738 18.2094 6.23959C18.2155 6.23067 18.3609 5.94172 18.4128 6.14108C18.4212 6.1739 18.4124 6.38487 18.5248 6.2767C18.5463 6.25573 18.5073 6.20867 18.5639 6.17929C18.6505 6.134 18.7654 6.19051 18.8719 6.09653C18.8905 6.07989 18.9696 5.93669 19.0331 6.04538C19.043 6.0624 19.0241 6.13283 19.0576 6.14072C19.217 6.17852 19.3838 6.13141 19.5456 6.18014C19.6029 6.19727 19.5736 6.31113 19.6334 6.34164C19.6931 6.37214 19.8135 6.40149 19.876 6.34945C19.9385 6.2974 19.8702 6.11593 19.9639 6.10141C19.9759 6.09955 19.9879 6.09783 19.9999 6.09626L19.0962 7C19.0444 6.60502 19.1452 6.21345 19.1603 5.81884C19.1626 5.75854 19.0977 5.80853 19.0964 5.71966C19.0936 5.52691 19.0713 5.25177 19.0816 5L19.9999 5.9183C19.8237 5.91112 19.6589 5.88802 19.5419 5.83121C19.3141 5.72069 19.6008 5.63656 19.4267 5.59159C19.3427 5.57013 19.2518 5.78111 19.2315 5.78775C19.0334 5.85522 18.8958 5.76176 18.7175 5.79044C18.6806 5.79639 18.7167 5.8819 18.6854 5.88602C18.5784 5.90085 18.4659 5.86268 18.3636 5.86966C18.3177 5.87299 18.3262 5.9383 18.2839 5.93326C18.1829 5.92195 18.0936 5.8945 17.9951 5.83328C17.9861 5.82771 18.0467 5.74646 17.9719 5.74344C17.8509 5.73878 17.7008 5.67839 17.5616 5.74076C17.5203 5.75951 17.5187 5.90878 17.4299 5.8057C17.4113 5.78417 17.4351 5.60493 17.3316 5.7598C17.3143 5.78553 17.1406 5.99442 17.0553 5.85977C17.0328 5.82434 16.9754 5.67767 16.9258 5.70072C16.919 5.70439 16.946 5.78457 16.9049 5.79239C16.7598 5.81856 16.6078 5.81 16.4588 5.83512C16.4191 5.84198 16.4783 5.92495 16.419 5.93253C16.2559 5.9535 16.0524 5.93237 15.8929 5.9064C15.8341 5.89667 15.8747 5.82795 15.8705 5.82047C15.8017 5.69882 15.761 5.86302 15.7382 5.87259C15.5962 5.92992 15.488 5.85279 15.3572 5.8732C15.321 5.87863 15.3466 5.95692 15.3395 5.9639C15.2649 6.03211 15.3204 5.89151 15.2732 5.87601C15.141 5.83212 14.9936 5.83842 14.8599 5.84842C14.8108 5.85221 14.866 5.94299 14.8219 5.94534C14.561 5.96099 14.2898 5.9523 14.0351 5.90225C13.9872 5.89267 14.0174 5.82276 14.0074 5.80679C13.9385 5.69509 13.8376 5.84746 13.8143 5.86197C13.7087 5.92824 13.6677 5.86642 13.5745 5.87796C13.1189 5.93541 12.5564 5.89447 12.1264 5.86917C11.566 5.83662 11.1312 5.77012 10.5969 5.78739C10.5629 5.7884 10.5971 5.88139 10.5679 5.88345C10.1899 5.90587 9.81776 5.86953 9.43902 5.89639C9.40794 5.89843 9.45274 5.98659 9.40286 5.99283C9.30054 6.00624 9.17092 6.00145 9.06747 5.9733C9.01701 5.95974 9.08469 5.88409 9.0339 5.87198C8.91563 5.84362 8.78886 5.83734 8.66738 5.85147C8.61569 5.85768 8.69368 5.94784 8.62649 5.94888C8.16877 5.95783 7.71925 5.97336 7.25671 5.8566C7.225 5.84858 7.19717 5.66533 7.12975 5.70047C7.12467 5.75133 7.12495 5.81115 7.12273 5.86551C6.45641 5.89479 5.7969 5.83127 5.12871 5.82144C5.10054 5.82105 5.14923 5.91815 5.09468 5.91788C4.779 5.91644 4.47246 5.94334 4.14955 5.84683C4.11751 5.8374 4.13395 5.66658 4.03954 5.69242C4.02288 5.69713 3.88068 5.71991 3.84392 5.75699C3.83892 5.76258 3.86487 5.84231 3.81905 5.84464C3.55276 5.85674 3.27371 5.83854 3.00789 5.78983C2.96499 5.78181 3.01067 5.69691 2.98012 5.69046C2.76336 5.64539 2.5276 5.70993 2.32048 5.63285C2.18184 5.58094 2.23317 5.43417 2.1595 5.28971C2.14908 5.26932 2.06323 5.26609 2.05879 5.18204C2.04739 4.97068 2.08897 4.73924 2.07191 4.51395C2.06831 4.46543 1.95333 4.51769 2.0214 4.40043C2.02616 4.39258 2.10952 4.35366 2.13005 4.31388C2.14434 4.28638 2.11858 4.20089 2.14775 4.16569C2.17691 4.13051 2.20896 4.20217 2.25731 4.1608C2.30563 4.11893 2.28438 4.02168 2.3809 4.01017ZM13.181 6.63888C13.2573 6.72054 13.2686 6.42145 13.186 6.49301C13.182 6.49682 13.1771 6.63488 13.181 6.63888ZM3.94774 6.68612C4.04751 6.81805 4.11578 6.62407 4.0454 6.52218C3.97503 6.42041 3.91734 6.64613 3.94774 6.68612ZM2.9132 6.78244C3.0298 6.88645 3.04815 6.46232 2.92327 6.54806C2.916 6.55291 2.90638 6.7764 2.9132 6.78244ZM2.50114 5.24857C2.50009 5.2446 2.43838 5.24073 2.4369 5.24466C2.40404 5.33965 2.52744 5.34733 2.50114 5.24857ZM2.11261 6.88668C2.05523 6.92308 2.12146 7.02789 2.19281 6.98266C2.2502 6.94625 2.18397 6.84135 2.11261 6.88668ZM17.1619 6.9581C17.1631 6.96255 17.2073 6.96657 17.2064 6.94137C17.2034 6.86023 17.1419 6.88313 17.1619 6.9581ZM2.10772 5.14184C2.09176 5.39963 1.74141 5.55593 1.78094 5.2752C1.78809 5.22436 1.89267 5.38477 1.92425 5.32006C1.9818 5.20166 1.76182 5.12304 1.8797 5.00222C1.90127 4.98034 2.10892 5.12668 2.10772 5.14184C2.10789 5.14199 2.10756 5.14169 2.10772 5.14184ZM13.225 6.99813C13.2265 7.00209 13.2877 7.00584 13.2892 7.00192C13.3224 6.90696 13.199 6.89935 13.225 6.99813ZM19.7435 7.14303C19.7469 7.15146 19.889 7.15934 19.8937 7.15158C19.9678 6.9963 19.6805 6.9799 19.7435 7.14303ZM9.10019 7.21701C9.03336 7.31253 8.95311 7.32366 8.89984 7.2037C8.96625 7.21007 9.03341 7.21113 9.10019 7.21701ZM2.3809 9.01017C2.60505 8.98412 2.89887 9.01197 3.12218 9.05021C3.19216 9.06207 3.15672 9.11508 3.20503 9.12565C3.29952 9.14626 3.38754 9.12026 3.48091 9.14481C3.51185 9.15321 3.47334 9.23717 3.50578 9.24406C3.68358 9.28116 3.85179 9.25978 4.03191 9.27763C4.9191 9.36569 5.79118 9.3972 6.68923 9.43546C6.98534 9.448 7.3453 9.52421 7.65115 9.49088C7.68685 9.48692 7.66556 9.41322 7.67236 9.40714C7.7789 9.31415 7.74348 9.46293 7.81304 9.4827C8.08915 9.56075 8.39617 9.56754 8.66189 9.5391C8.77493 9.52678 8.66159 9.38039 8.77542 9.46256C8.78332 9.46811 8.75464 9.54638 8.78564 9.55472C8.85594 9.5735 8.98933 9.55951 9.04382 9.56571C9.14883 9.57806 9.1662 9.57727 9.26553 9.57816C9.40131 9.58006 9.56281 9.61897 9.70849 9.60123C9.73959 9.59721 9.69842 9.51698 9.74801 9.50333C9.79765 9.4897 9.92896 9.4965 9.97323 9.51542C10.0175 9.53434 9.99866 9.5974 10.0065 9.61185C10.071 9.73385 10.2229 9.56488 10.2424 9.56071C10.5987 9.48951 10.9043 9.58576 11.2388 9.58549C11.4927 9.58507 11.7642 9.5533 12.0059 9.55765C12.2937 9.56316 12.5377 9.60663 12.8173 9.59916C12.8468 9.59846 12.8123 9.50413 12.8483 9.50309C13.2313 9.49211 13.6116 9.50239 13.9929 9.56608C14.0311 9.57255 13.9818 9.65537 14.02 9.66678C14.2539 9.73485 14.6241 9.89836 14.763 9.53776C14.9214 9.55184 15.1138 9.56639 15.2555 9.63907C15.3469 9.68586 15.2582 9.77608 15.3704 9.73758C15.3958 9.72901 15.3628 9.64999 15.4008 9.6431C15.5607 9.61418 15.7353 9.63986 15.8935 9.59904C15.9257 9.59055 15.9169 9.51974 15.926 9.50699C16.0026 9.40374 16.1301 9.57443 16.1579 9.58683C16.3696 9.67932 16.5242 9.64292 16.7214 9.64518C16.7672 9.64574 16.7131 9.55064 16.7572 9.54777C16.9855 9.53414 17.2221 9.54231 17.4458 9.58451C17.4955 9.59412 17.4498 9.67513 17.4736 9.68387C17.5784 9.72142 17.6016 9.56842 17.7021 9.60148C17.7233 9.60825 17.7114 9.6776 17.7153 9.68522C17.7758 9.80478 17.8283 9.63537 17.8439 9.63163C18.0407 9.58052 18.1666 9.75738 18.3567 9.73234C18.3795 9.72916 18.3282 9.64141 18.3921 9.63785C18.8182 9.61363 19.2688 9.63773 19.6905 9.70792C19.7561 9.71872 19.7093 9.78463 19.7134 9.79276C19.7806 9.91973 19.8242 9.74961 19.8455 9.7432C19.8984 9.72874 19.9502 9.73284 19.9999 9.73903L20.2472 9.72667L20.2609 10C20.2473 10.1089 20.2237 10.2078 20.3628 10.2865C20.3064 10.8596 20.3685 11.4307 20.3014 12L20.3157 12.2857L19.9999 12.3015C19.8597 12.285 19.7196 12.2607 19.5796 12.2248C19.5706 12.2227 19.5868 12.1389 19.5688 12.1351C19.3524 12.0881 19.394 12.2183 19.2508 12.3775C19.2147 12.4175 19.105 12.2252 19.0953 12.2111C19.06 12.1592 19.0966 12.0346 19.0848 12.0245C18.9868 11.9455 19.0028 12.3577 18.8706 12.3579C18.8664 12.3572 18.8838 12.2813 18.8727 12.2738C18.8382 12.2501 18.804 12.2802 18.7703 12.2541C18.6931 12.1937 18.6656 11.9934 18.5477 12.11C18.5328 12.1251 18.5556 12.3589 18.4375 12.3479C18.3905 12.3433 18.1822 12.3473 18.1238 12.3321C18.0655 12.317 18.1055 12.2416 18.1014 12.2384C17.9443 12.1387 18.0038 12.0974 17.9251 11.9499C17.8464 11.803 17.8683 12.1535 17.8362 12.1926C17.804 12.2316 17.6888 12.1494 17.6605 12.1208C17.6323 12.0922 17.6675 12.0443 17.6424 12.0282C17.4756 11.9225 17.5692 12.2021 17.5142 12.2578C17.3846 12.3895 17.2837 12.1296 17.1651 12.1041C17.133 12.0972 17.1592 12.1564 17.1306 12.162C17.0174 12.1831 16.9493 12.102 16.8205 12.1764C16.7995 12.1885 16.6954 12.3448 16.628 12.2301C16.6184 12.2135 16.6456 12.1488 16.5973 12.1342C16.5252 12.1125 16.3954 12.0983 16.3179 12.12C16.2607 12.136 16.3263 12.2427 16.2543 12.2096C16.2223 12.1948 16.2816 12.1323 16.2215 12.1097C16.1617 12.0871 16.0088 12.0898 15.9506 12.092C15.8926 12.0942 15.9244 12.1752 15.9197 12.1806C15.8913 12.2119 15.7798 12.2509 15.77 12.2508C15.2732 12.2607 14.8152 12.1242 14.3315 12.1694C14.2936 12.1728 14.3189 12.2582 14.3131 12.2596C14.1831 12.2954 14.2856 12.0684 14.1948 11.9924C14.2079 12.1657 14.1543 12.1343 14.0628 12.1533C14.0187 12.1626 14.0427 12.2297 14.0387 12.2365C13.9733 12.3384 13.9278 12.2068 13.916 12.1799C13.8727 12.0809 13.8256 12.1979 13.7961 12.1317C13.7666 12.066 13.8344 11.9686 13.7467 11.9698C13.722 12.0318 13.7872 12.1939 13.7206 12.2202C13.4691 12.3195 12.9997 12.1924 12.7976 12.1792C12.5958 12.166 12.5306 12.1774 12.413 12.155C12.2007 12.1145 12.2785 12.2347 12.1466 12.2898C12.0144 12.3448 12.0786 12.0489 12.0596 11.9853C12.041 11.9217 12.0206 11.9872 11.9974 11.9522C11.9742 11.9173 12.0243 11.874 11.9699 11.8609C11.9155 11.8478 11.7666 11.9609 11.7473 12.0274C11.7065 12.1683 11.7736 12.3162 11.6295 12.2642C11.6212 12.2612 11.6481 12.1834 11.6164 12.1755C11.3644 12.1156 11.1025 12.1119 10.8508 12.0589C10.8162 12.0515 10.8472 11.965 10.827 11.9597C10.6172 11.9043 10.6922 12.0503 10.5772 12.2124C10.6031 11.9966 10.5395 11.8646 10.3803 11.8634C10.2845 11.8625 10.301 11.9567 10.2391 12.0232C10.2205 12.0432 10.1528 11.9785 10.1405 12.0228C10.1001 12.1676 10.1639 12.3298 9.9997 12.2652C9.9925 12.2622 10.0154 12.1829 9.99054 12.1781C9.82967 12.1466 9.81042 12.2981 9.63654 12.3165C9.50024 12.3309 9.25783 12.2385 9.10263 12.2235C9.1059 11.9809 8.9593 12.0365 8.89984 12.2037C8.79912 12.1969 8.69034 12.2063 8.59299 12.1832C8.55948 12.1753 8.58149 12.1051 8.57727 12.0975C8.51248 11.9785 8.4687 12.1412 8.44696 12.1475C8.21133 12.2096 8.01936 12.0862 7.79449 12.2068C7.78651 12.2111 7.77358 12.3796 7.71347 12.2566C7.70958 12.2481 7.78385 12.1714 7.67807 12.1655C7.57227 12.1596 7.37283 12.0692 7.22595 12.1473C7.19041 12.1661 7.1005 12.3029 7.02835 12.196C7.01873 12.1815 7.02925 12.1332 7.01538 12.1063C6.97052 12.0206 6.94603 12.1909 6.89331 12.0462C6.84058 11.9016 6.73091 11.7932 6.58279 11.893C6.57807 11.8959 6.54301 12.0309 6.49642 12.0288C6.42206 12.0253 6.3165 11.9971 6.23885 11.998C6.20168 11.9985 6.22547 12.0823 6.21902 12.0838C5.96906 12.1308 5.79115 12.0561 5.52337 12.0236C5.47428 12.0175 5.33321 12.1318 5.23818 12.0415C5.13383 11.9426 5.24106 11.5311 5.00121 11.6291C4.90447 11.6683 4.782 12.1903 4.60814 11.9199C4.27098 11.9869 3.95916 11.8485 3.62105 11.9442C3.60585 11.9484 3.55777 12.0941 3.52202 12.0921C3.46896 12.0889 3.43983 12.0208 3.40193 12.0163C3.24316 11.9958 3.09786 12.0541 2.94478 12.045C2.88666 12.0417 2.90698 11.9713 2.83766 11.9674C2.76839 11.9635 2.72219 12.0562 2.62831 12.0114C2.55741 11.9773 2.48652 11.7878 2.39241 11.7657C2.38882 11.9526 2.32419 11.9488 2.20931 11.9981C2.18722 12.0077 2.2109 12.0728 2.20046 12.0807C2.15794 12.1142 2.1186 12.0603 2.07823 12.0968C2.06841 12.1055 2.06795 12.1694 2.05992 12.1801C2.04211 12.2047 2.02129 12.213 1.9999 12.2115L1.79945 12.2216L1.78837 12C1.79261 11.9394 1.87587 11.8743 1.89434 11.86C1.9893 11.7859 1.90627 11.7514 1.94366 11.6946C1.98105 11.6379 2.02778 11.7226 2.05047 11.6564C2.0974 11.5192 2.08709 11.3428 2.09002 11.2034C2.0908 11.1478 2.00559 11.1857 2.00372 11.1778C1.98211 11.0627 2.07275 10.9464 1.90301 10.8827C2.34189 10.8029 1.86044 10.8133 1.9483 10.6489C1.95541 10.6359 2.16295 10.6195 2.19342 10.6692C2.22386 10.7189 2.15898 10.7943 2.20648 10.8633C2.21762 10.8796 2.4121 10.9732 2.42388 10.986C2.51595 11.086 2.20581 11.1001 2.18878 11.1054C2.00495 11.1654 2.21446 11.2798 2.22894 11.3099C2.29527 11.4477 2.25166 11.5647 2.29901 11.6799C2.32961 11.7553 2.53276 11.7627 2.52654 11.8218C2.51894 11.8946 2.47535 11.9499 2.43589 12L1.9999 11.564C2.08524 11.6312 2.1557 11.6864 2.27248 11.5316C2.31222 11.4792 2.27273 11.2571 2.41515 11.4317C2.4241 11.4427 2.52983 11.6025 2.59093 11.5014C2.5986 11.4887 2.59836 11.424 2.60848 11.4185C2.67629 11.3834 2.72152 11.4349 2.7954 11.4102C2.86926 11.3856 2.95809 11.3487 3.04244 11.3707C3.09326 11.3838 3.15849 11.5044 3.18282 11.5339C3.25152 11.6189 3.32519 11.4795 3.36775 11.5825C3.41068 11.686 3.32676 11.8431 3.43932 11.91C3.44349 11.7419 3.45307 11.5693 3.45977 11.4002C3.70643 11.4062 3.94913 11.4605 4.19661 11.4531C4.2273 11.452 4.19592 11.3616 4.22881 11.3581C4.36758 11.3438 4.4888 11.4082 4.63271 11.3825C4.74411 11.3623 4.86626 11.2666 4.98275 11.2425C5.0539 11.4349 5.22675 11.3696 5.35232 11.3872C5.3963 11.3932 5.39336 11.4446 5.42464 11.4614C5.54265 11.5234 5.48736 11.3534 5.51971 11.3266C5.65851 11.2124 5.67039 11.5972 5.83404 11.5877C5.84271 11.5874 5.94868 11.3822 5.96328 11.3695C6.05602 11.2862 5.97863 11.4409 6.03668 11.456C6.14265 11.4837 6.21629 11.5327 6.34063 11.4726C6.37689 11.4548 6.46386 11.327 6.53427 11.4259C6.54353 11.4388 6.53841 11.5066 6.54586 11.5106C6.68081 11.5768 6.68436 11.3637 6.76147 11.2916C6.8386 11.2195 6.95772 11.3665 6.98196 11.4089C7.04538 11.5185 6.93336 11.4558 6.92993 11.4665C6.88958 11.5946 6.97646 11.5725 7.04284 11.5833C7.05245 11.7922 7.14529 11.7797 7.11166 11.5937C7.10783 11.5734 7.05617 11.5929 7.04284 11.5833C7.10111 11.3784 7.20314 11.3522 7.31582 11.5437C7.36857 11.6334 7.3187 11.7381 7.47894 11.6998C7.55166 11.6825 7.52356 11.5387 7.58773 11.4995C7.73435 11.41 7.92486 11.5442 8.07602 11.523C8.13088 11.5154 8.07743 11.4366 8.11493 11.4287C8.21443 11.4073 8.30217 11.4664 8.4021 11.4361C8.41115 11.4333 8.38903 11.3509 8.4201 11.3498C8.65567 11.3403 8.8608 11.393 9.10675 11.3945C9.22559 11.3952 9.43805 11.3497 9.56116 11.3589C9.77452 11.3742 10.037 11.494 10.2193 11.4649C10.3382 11.4463 10.3121 11.3639 10.363 11.3077C10.4613 11.1988 10.6353 11.3938 10.6587 11.424C10.6594 11.425 10.5571 11.4445 10.6117 11.4868C10.6435 11.5749 10.6576 11.4244 10.6587 11.424C10.6741 11.4435 10.8785 11.4623 10.919 11.4465C10.9411 11.4379 10.9288 11.3598 10.9402 11.3568C11.2135 11.2869 11.4872 11.267 11.7644 11.3036C11.7693 11.3051 11.7619 11.3925 11.7734 11.3951C11.9338 11.4339 12.0366 11.3271 12.1689 11.2636C12.3012 11.2002 12.4061 11.2215 12.4844 11.3714C12.5843 11.3525 12.7275 11.4188 12.8099 11.4591C12.8923 11.4993 12.9038 11.3293 12.9111 11.3259C13.1373 11.2183 13.268 11.3156 13.5027 11.3308C13.6142 11.3383 13.8355 11.3136 13.9563 11.295C14.0518 11.28 14.1093 11.3199 14.1972 11.2944C14.2091 11.291 14.1971 11.2153 14.2008 11.2124C14.2989 11.1218 14.2517 11.3069 14.272 11.3399C14.3455 11.4601 14.3909 11.5242 14.5166 11.4676C14.5456 11.4547 14.6301 11.1882 14.6829 11.1726C14.7517 11.1528 14.7257 11.2483 14.7977 11.2252C14.8038 11.2233 14.8026 11.1644 14.847 11.167C15.0531 11.1782 15.2779 11.2125 15.4921 11.2066C15.5214 11.2061 15.4839 11.1126 15.5261 11.1102C15.7245 11.0991 15.942 11.1026 16.1353 11.1463C16.1828 11.1574 16.153 11.2228 16.1633 11.2423C16.2267 11.3599 16.3167 11.189 16.3315 11.1858C16.6854 11.1037 16.9562 11.2583 17.3169 11.1847C17.3365 11.1803 17.4877 10.9972 17.5551 11.1543C17.5597 11.1647 17.6264 11.3254 17.6854 11.2155C17.6891 11.2087 17.6475 11.1259 17.72 11.1344C17.7926 11.1428 17.9093 11.0875 18.0091 11.1784C18.0406 11.2071 18.1152 11.3674 18.2094 11.2396C18.2155 11.2307 18.3609 10.9417 18.4128 11.1411C18.4212 11.1739 18.4124 11.3849 18.5248 11.2767C18.5463 11.2557 18.5073 11.2087 18.5639 11.1793C18.6505 11.134 18.7654 11.1905 18.8719 11.0965C18.8905 11.0799 18.9696 10.9367 19.0331 11.0454C19.043 11.0624 19.0241 11.1328 19.0576 11.1407C19.217 11.1785 19.3838 11.1314 19.5456 11.1801C19.6029 11.1973 19.5736 11.3111 19.6334 11.3416C19.6931 11.3721 19.8135 11.4015 19.876 11.3495C19.9385 11.2974 19.8702 11.1159 19.9639 11.1014C19.9759 11.0995 19.9879 11.0978 19.9999 11.0963L19.0962 12C19.0444 11.605 19.1452 11.2135 19.1603 10.8188C19.1626 10.7585 19.0977 10.8085 19.0964 10.7197C19.0936 10.5269 19.0713 10.2518 19.0816 10L19.9999 10.9183C19.8237 10.9111 19.6589 10.888 19.5419 10.8312C19.3141 10.7207 19.6008 10.6366 19.4267 10.5916C19.3427 10.5701 19.2518 10.7811 19.2315 10.7878C19.0334 10.8552 18.8958 10.7618 18.7175 10.7904C18.6806 10.7964 18.7167 10.8819 18.6854 10.886C18.5784 10.9008 18.4659 10.8627 18.3636 10.8697C18.3177 10.873 18.3262 10.9383 18.2839 10.9333C18.1829 10.922 18.0936 10.8945 17.9951 10.8333C17.9861 10.8277 18.0467 10.7465 17.9719 10.7434C17.8509 10.7388 17.7008 10.6784 17.5616 10.7408C17.5203 10.7595 17.5187 10.9088 17.4299 10.8057C17.4113 10.7842 17.4351 10.6049 17.3316 10.7598C17.3143 10.7855 17.1406 10.9944 17.0553 10.8598C17.0328 10.8243 16.9754 10.6777 16.9258 10.7007C16.919 10.7044 16.946 10.7846 16.9049 10.7924C16.7598 10.8186 16.6078 10.81 16.4588 10.8351C16.4191 10.842 16.4783 10.9249 16.419 10.9325C16.2559 10.9535 16.0524 10.9324 15.8929 10.9064C15.8341 10.8967 15.8747 10.8279 15.8705 10.8205C15.8017 10.6988 15.761 10.863 15.7382 10.8726C15.5962 10.9299 15.488 10.8528 15.3572 10.8732C15.321 10.8786 15.3466 10.9569 15.3395 10.9639C15.2649 11.0321 15.3204 10.8915 15.2732 10.876C15.141 10.8321 14.9936 10.8384 14.8599 10.8484C14.8108 10.8522 14.866 10.943 14.8219 10.9453C14.561 10.961 14.2898 10.9523 14.0351 10.9023C13.9872 10.8927 14.0174 10.8228 14.0074 10.8068C13.9385 10.6951 13.8376 10.8475 13.8143 10.862C13.7087 10.9282 13.6677 10.8664 13.5745 10.878C13.1189 10.9354 12.5564 10.8945 12.1264 10.8692C11.566 10.8366 11.1312 10.7701 10.5969 10.7874C10.5629 10.7884 10.5971 10.8814 10.5679 10.8835C10.1899 10.9059 9.81776 10.8695 9.43902 10.8964C9.40794 10.8984 9.45274 10.9866 9.40286 10.9928C9.30054 11.0062 9.17092 11.0014 9.06747 10.9733C9.01701 10.9597 9.08469 10.8841 9.0339 10.872C8.91563 10.8436 8.78886 10.8373 8.66738 10.8515C8.61569 10.8577 8.69368 10.9478 8.62649 10.9489C8.16877 10.9578 7.71925 10.9734 7.25671 10.8566C7.225 10.8486 7.19717 10.6653 7.12975 10.7005C7.12467 10.7513 7.12495 10.8112 7.12273 10.8655C6.45641 10.8948 5.7969 10.8313 5.12871 10.8214C5.10054 10.8211 5.14923 10.9181 5.09468 10.9179C4.779 10.9164 4.47246 10.9433 4.14955 10.8468C4.11751 10.8374 4.13395 10.6666 4.03954 10.6924C4.02288 10.6971 3.88068 10.7199 3.84392 10.757C3.83892 10.7626 3.86487 10.8423 3.81905 10.8446C3.55276 10.8567 3.27371 10.8385 3.00789 10.7898C2.96499 10.7818 3.01067 10.6969 2.98012 10.6905C2.76336 10.6454 2.5276 10.7099 2.32048 10.6328C2.18184 10.5809 2.23317 10.4342 2.1595 10.2897C2.14908 10.2693 2.06323 10.2661 2.05879 10.182C2.04739 9.97068 2.08897 9.73924 2.07191 9.51395C2.06831 9.46543 1.95333 9.51769 2.0214 9.40043C2.02616 9.39258 2.10952 9.35366 2.13005 9.31388C2.14434 9.28638 2.11858 9.20089 2.14775 9.16569C2.17691 9.13051 2.20896 9.20217 2.25731 9.1608C2.30563 9.11893 2.28438 9.02168 2.3809 9.01017ZM13.181 11.6389C13.2573 11.7205 13.2686 11.4214 13.186 11.493C13.182 11.4968 13.1771 11.6349 13.181 11.6389ZM3.94774 11.6861C4.04751 11.818 4.11578 11.6241 4.0454 11.5222C3.97503 11.4204 3.91734 11.6461 3.94774 11.6861ZM2.9132 11.7824C3.0298 11.8865 3.04815 11.4623 2.92327 11.5481C2.916 11.5529 2.90638 11.7764 2.9132 11.7824ZM2.50114 10.2486C2.50009 10.2446 2.43838 10.2407 2.4369 10.2447C2.40404 10.3397 2.52744 10.3473 2.50114 10.2486ZM2.11261 11.8867C2.05523 11.9231 2.12146 12.0279 2.19281 11.9827C2.2502 11.9463 2.18397 11.8413 2.11261 11.8867ZM17.1619 11.9581C17.1631 11.9626 17.2073 11.9666 17.2064 11.9414C17.2034 11.8602 17.1419 11.8831 17.1619 11.9581ZM2.10772 10.1418C2.09176 10.3996 1.74141 10.5559 1.78094 10.2752C1.78809 10.2244 1.89267 10.3848 1.92425 10.3201C1.9818 10.2017 1.76182 10.123 1.8797 10.0022C1.90127 9.98034 2.10892 10.1266 2.10772 10.1418C2.10789 10.142 2.10756 10.1416 2.10772 10.1418ZM13.225 11.9981C13.2265 12.0021 13.2877 12.0058 13.2892 12.0019C13.3224 11.907 13.199 11.8994 13.225 11.9981ZM19.7435 12.143C19.7469 12.1515 19.889 12.1593 19.8937 12.1516C19.9678 11.9963 19.6805 11.9799 19.7435 12.143ZM9.10019 12.217C9.03336 12.3125 8.95311 12.3237 8.89984 12.2037C8.96625 12.2101 9.03341 12.2111 9.10019 12.217ZM2.3809 14.0102C2.60505 13.9841 2.89887 14.012 3.12218 14.0502C3.19216 14.0621 3.15672 14.1151 3.20503 14.1256C3.29952 14.1463 3.38754 14.1203 3.48091 14.1448C3.51185 14.1532 3.47334 14.2372 3.50578 14.2441C3.68358 14.2812 3.85179 14.2598 4.03191 14.2776C4.9191 14.3657 5.79119 14.3972 6.68923 14.4355C6.98534 14.448 7.3453 14.5242 7.65115 14.4909C7.68685 14.4869 7.66556 14.4132 7.67236 14.4071C7.7789 14.3141 7.74348 14.4629 7.81304 14.4827C8.08915 14.5608 8.39617 14.5675 8.66189 14.5391C8.77493 14.5268 8.66159 14.3804 8.77542 14.4626C8.78332 14.4681 8.75464 14.5464 8.78564 14.5547C8.85594 14.5735 8.98933 14.5595 9.04382 14.5657C9.14883 14.5781 9.1662 14.5773 9.26553 14.5782C9.40131 14.5801 9.56281 14.619 9.70849 14.6012C9.73959 14.5972 9.69842 14.517 9.74801 14.5033C9.79765 14.4897 9.92896 14.4965 9.97323 14.5154C10.0175 14.5343 9.99866 14.5974 10.0065 14.6119C10.071 14.7338 10.2229 14.5649 10.2424 14.5607C10.5987 14.4895 10.9043 14.5858 11.2388 14.5855C11.4927 14.5851 11.7642 14.5533 12.0059 14.5577C12.2937 14.5632 12.5377 14.6066 12.8173 14.5992C12.8468 14.5985 12.8123 14.5041 12.8483 14.5031C13.2313 14.4921 13.6116 14.5024 13.9929 14.5661C14.0311 14.5725 13.9818 14.6554 14.02 14.6668C14.2539 14.7348 14.6241 14.8984 14.763 14.5378C14.9214 14.5518 15.1138 14.5664 15.2555 14.6391C15.3469 14.6859 15.2582 14.7761 15.3704 14.7376C15.3958 14.729 15.3628 14.65 15.4008 14.6431C15.5607 14.6142 15.7353 14.6399 15.8935 14.599C15.9257 14.5905 15.9169 14.5197 15.926 14.507C16.0026 14.4037 16.1301 14.5744 16.1579 14.5868C16.3696 14.6793 16.5242 14.6429 16.7214 14.6452C16.7672 14.6457 16.7131 14.5506 16.7572 14.5478C16.9855 14.5341 17.2221 14.5423 17.4458 14.5845C17.4955 14.5941 17.4498 14.6751 17.4736 14.6839C17.5784 14.7214 17.6016 14.5684 17.7021 14.6015C17.7233 14.6082 17.7114 14.6776 17.7153 14.6852C17.7758 14.8048 17.8283 14.6354 17.8439 14.6316C18.0407 14.5805 18.1666 14.7574 18.3567 14.7323C18.3795 14.7292 18.3282 14.6414 18.3921 14.6379C18.8182 14.6136 19.2688 14.6377 19.6905 14.7079C19.7561 14.7187 19.7093 14.7846 19.7134 14.7928C19.7806 14.9197 19.8242 14.7496 19.8455 14.7432C19.8984 14.7287 19.9502 14.7328 19.9999 14.739L20.2472 14.7267L20.2609 15C20.2473 15.1089 20.2237 15.2078 20.3628 15.2865C20.3064 15.8596 20.3685 16.4307 20.3014 17L20.3157 17.2857L19.9999 17.3015C19.8597 17.285 19.7196 17.2607 19.5796 17.2248C19.5706 17.2227 19.5868 17.1389 19.5688 17.1351C19.3524 17.0881 19.394 17.2183 19.2508 17.3775C19.2147 17.4175 19.105 17.2252 19.0953 17.2111C19.06 17.1592 19.0966 17.0346 19.0848 17.0245C18.9868 16.9455 19.0028 17.3577 18.8706 17.3579C18.8664 17.3572 18.8838 17.2813 18.8727 17.2738C18.8382 17.2501 18.804 17.2802 18.7703 17.2541C18.6931 17.1937 18.6656 16.9934 18.5477 17.11C18.5328 17.1251 18.5556 17.3589 18.4375 17.3479C18.3905 17.3433 18.1822 17.3473 18.1238 17.3321C18.0655 17.317 18.1055 17.2416 18.1014 17.2384C17.9443 17.1387 18.0038 17.0974 17.9251 16.9499C17.8464 16.803 17.8683 17.1535 17.8362 17.1926C17.804 17.2316 17.6888 17.1494 17.6605 17.1208C17.6323 17.0922 17.6675 17.0443 17.6424 17.0282C17.4756 16.9225 17.5692 17.2021 17.5142 17.2578C17.3846 17.3895 17.2837 17.1296 17.1651 17.1041C17.133 17.0972 17.1592 17.1564 17.1306 17.162C17.0174 17.1831 16.9493 17.102 16.8205 17.1764C16.7995 17.1885 16.6954 17.3448 16.628 17.2301C16.6184 17.2135 16.6456 17.1488 16.5973 17.1342C16.5252 17.1125 16.3954 17.0983 16.3179 17.12C16.2607 17.136 16.3263 17.2427 16.2543 17.2096C16.2223 17.1948 16.2816 17.1323 16.2215 17.1097C16.1617 17.0871 16.0088 17.0899 15.9506 17.092C15.8926 17.0942 15.9244 17.1752 15.9197 17.1806C15.8913 17.2119 15.7798 17.2509 15.77 17.2508C15.2732 17.2607 14.8152 17.1242 14.3315 17.1694C14.2936 17.1728 14.3188 17.2582 14.3131 17.2596C14.1831 17.2954 14.2856 17.0684 14.1948 16.9924C14.2079 17.1657 14.1543 17.1343 14.0628 17.1533C14.0187 17.1626 14.0427 17.2297 14.0387 17.2365C13.9733 17.3384 13.9278 17.2068 13.916 17.1799C13.8727 17.0809 13.8256 17.1979 13.7961 17.1317C13.7666 17.066 13.8344 16.9686 13.7467 16.9698C13.722 17.0318 13.7872 17.1939 13.7206 17.2202C13.4691 17.3195 12.9997 17.1924 12.7976 17.1792C12.5958 17.166 12.5306 17.1774 12.413 17.155C12.2007 17.1145 12.2785 17.2347 12.1466 17.2898C12.0144 17.3448 12.0786 17.0489 12.0596 16.9853C12.041 16.9217 12.0206 16.9872 11.9974 16.9522C11.9742 16.9173 12.0243 16.874 11.9699 16.8609C11.9155 16.8478 11.7666 16.9609 11.7473 17.0274C11.7065 17.1683 11.7736 17.3162 11.6295 17.2642C11.6212 17.2612 11.6481 17.1834 11.6164 17.1755C11.3644 17.1156 11.1025 17.1119 10.8508 17.0589C10.8162 17.0515 10.8472 16.965 10.827 16.9597C10.6172 16.9043 10.6922 17.0503 10.5772 17.2124C10.6031 16.9966 10.5395 16.8646 10.3803 16.8634C10.2845 16.8625 10.301 16.9568 10.2391 17.0232C10.2205 17.0432 10.1528 16.9785 10.1405 17.0228C10.1001 17.1676 10.1639 17.3298 9.9997 17.2652C9.99249 17.2622 10.0154 17.1829 9.99054 17.1781C9.82967 17.1466 9.81043 17.2981 9.63654 17.3165C9.50024 17.3309 9.25782 17.2385 9.10263 17.2235C9.10589 16.9809 8.9593 17.0365 8.89984 17.2037C8.79912 17.1969 8.69033 17.2063 8.59299 17.1832C8.55948 17.1753 8.58149 17.1051 8.57727 17.0975C8.51248 16.9785 8.4687 17.1412 8.44696 17.1475C8.21133 17.2096 8.01936 17.0862 7.79449 17.2068C7.78651 17.2111 7.77358 17.3796 7.71347 17.2566C7.70958 17.2481 7.78385 17.1714 7.67807 17.1655C7.57227 17.1596 7.37283 17.0692 7.22595 17.1473C7.1904 17.1661 7.1005 17.3029 7.02835 17.196C7.01873 17.1815 7.02925 17.1332 7.01538 17.1063C6.97052 17.0206 6.94603 17.1909 6.8933 17.0462C6.84058 16.9016 6.73091 16.7932 6.58279 16.893C6.57807 16.8959 6.54301 17.0309 6.49642 17.0288C6.42206 17.0253 6.3165 16.9971 6.23885 16.998C6.20168 16.9985 6.22547 17.0823 6.21902 17.0838C5.96905 17.1308 5.79115 17.0561 5.52337 17.0236C5.47428 17.0175 5.33321 17.1318 5.23818 17.0415C5.13383 16.9426 5.24106 16.5311 5.00121 16.6291C4.90447 16.6683 4.78199 17.1903 4.60814 16.9199C4.27097 16.9869 3.95916 16.8485 3.62105 16.9442C3.60585 16.9484 3.55777 17.0941 3.52202 17.0921C3.46896 17.0889 3.43983 17.0208 3.40193 17.0163C3.24316 16.9958 3.09786 17.0541 2.94478 17.045C2.88666 17.0417 2.90698 16.9713 2.83766 16.9674C2.76839 16.9635 2.72219 17.0562 2.62831 17.0114C2.55741 16.9773 2.48652 16.7878 2.39241 16.7657C2.38882 16.9526 2.32419 16.9488 2.20931 16.9981C2.18723 17.0077 2.2109 17.0728 2.20046 17.0807C2.15794 17.1142 2.1186 17.0603 2.07823 17.0968C2.06841 17.1055 2.06795 17.1694 2.05992 17.1801C2.04211 17.2047 2.02129 17.213 1.9999 17.2115L1.79945 17.2216L1.78837 17C1.79261 16.9394 1.87587 16.8743 1.89434 16.86C1.9893 16.7859 1.90627 16.7514 1.94366 16.6946C1.98105 16.6379 2.02778 16.7226 2.05047 16.6564C2.0974 16.5192 2.08709 16.3428 2.09002 16.2034C2.0908 16.1478 2.00559 16.1857 2.00372 16.1778C1.98211 16.0627 2.07275 15.9464 1.90301 15.8827C2.34189 15.8029 1.86044 15.8133 1.9483 15.6489C1.95541 15.6359 2.16295 15.6195 2.19342 15.6692C2.22386 15.7189 2.15898 15.7943 2.20648 15.8633C2.21762 15.8796 2.4121 15.9732 2.42388 15.986C2.51595 16.086 2.20581 16.1001 2.18878 16.1054C2.00495 16.1654 2.21446 16.2798 2.22894 16.3099C2.29527 16.4477 2.25166 16.5647 2.29901 16.6799C2.32961 16.7553 2.53276 16.7627 2.52654 16.8218C2.51894 16.8946 2.47535 16.9499 2.43589 17L1.9999 16.564C2.08524 16.6312 2.1557 16.6864 2.27248 16.5316C2.31222 16.4792 2.27272 16.2571 2.41515 16.4317C2.4241 16.4427 2.52983 16.6025 2.59093 16.5014C2.5986 16.4887 2.59836 16.424 2.60848 16.4185C2.67629 16.3834 2.72152 16.4349 2.7954 16.4102C2.86927 16.3856 2.95809 16.3487 3.04244 16.3707C3.09326 16.3838 3.15849 16.5044 3.18282 16.5339C3.25152 16.6189 3.32519 16.4795 3.36775 16.5825C3.41068 16.686 3.32676 16.8431 3.43932 16.91C3.44349 16.7419 3.45307 16.5693 3.45977 16.4002C3.70643 16.4062 3.94913 16.4605 4.19661 16.4531C4.2273 16.452 4.19592 16.3616 4.22881 16.3581C4.36758 16.3438 4.4888 16.4082 4.63271 16.3825C4.74411 16.3623 4.86626 16.2666 4.98275 16.2425C5.0539 16.4349 5.22675 16.3696 5.35232 16.3872C5.3963 16.3932 5.39336 16.4446 5.42464 16.4614C5.54265 16.5234 5.48736 16.3534 5.51971 16.3266C5.65851 16.2124 5.67039 16.5972 5.83404 16.5877C5.84271 16.5874 5.94868 16.3822 5.96328 16.3695C6.05603 16.2862 5.97863 16.4409 6.03668 16.456C6.14265 16.4837 6.2163 16.5327 6.34063 16.4726C6.37689 16.4548 6.46386 16.327 6.53427 16.4259C6.54353 16.4388 6.53841 16.5066 6.54586 16.5106C6.68081 16.5768 6.68436 16.3637 6.76147 16.2916C6.8386 16.2195 6.95772 16.3665 6.98196 16.4089C7.04538 16.5185 6.93336 16.4558 6.92993 16.4665C6.88958 16.5946 6.97646 16.5725 7.04284 16.5833C7.05245 16.7922 7.14528 16.7797 7.11166 16.5937C7.10783 16.5734 7.05617 16.5929 7.04284 16.5833C7.10111 16.3784 7.20314 16.3522 7.31582 16.5437C7.36857 16.6334 7.3187 16.7381 7.47894 16.6998C7.55166 16.6825 7.52356 16.5387 7.58773 16.4995C7.73435 16.41 7.92486 16.5442 8.07602 16.523C8.13088 16.5154 8.07743 16.4366 8.11493 16.4287C8.21443 16.4073 8.30217 16.4664 8.4021 16.4361C8.41115 16.4333 8.38903 16.3509 8.4201 16.3498C8.65567 16.3403 8.86079 16.393 9.10675 16.3945C9.22559 16.3952 9.43805 16.3497 9.56116 16.3589C9.77452 16.3742 10.037 16.494 10.2193 16.4649C10.3382 16.4463 10.3121 16.3639 10.363 16.3077C10.4613 16.1988 10.6353 16.3938 10.6587 16.424C10.6594 16.425 10.5571 16.4445 10.6117 16.4868C10.6435 16.5749 10.6576 16.4244 10.6587 16.424C10.6741 16.4435 10.8785 16.4623 10.919 16.4465C10.9411 16.4379 10.9288 16.3598 10.9402 16.3568C11.2135 16.2869 11.4872 16.267 11.7644 16.3036C11.7693 16.3051 11.7619 16.3925 11.7734 16.3951C11.9338 16.4339 12.0366 16.3271 12.1689 16.2636C12.3012 16.2002 12.4061 16.2215 12.4844 16.3714C12.5843 16.3525 12.7275 16.4188 12.8099 16.4591C12.8923 16.4993 12.9038 16.3293 12.9111 16.3259C13.1373 16.2183 13.268 16.3156 13.5027 16.3308C13.6142 16.3383 13.8355 16.3136 13.9563 16.295C14.0518 16.28 14.1093 16.3199 14.1972 16.2944C14.2091 16.291 14.1971 16.2153 14.2008 16.2124C14.2989 16.1218 14.2517 16.3069 14.272 16.3399C14.3455 16.4601 14.3909 16.5242 14.5166 16.4676C14.5456 16.4547 14.6301 16.1882 14.6829 16.1726C14.7517 16.1528 14.7257 16.2483 14.7977 16.2252C14.8038 16.2233 14.8026 16.1644 14.847 16.167C15.0531 16.1782 15.2779 16.2125 15.4921 16.2066C15.5214 16.2061 15.4839 16.1126 15.5261 16.1102C15.7245 16.0991 15.942 16.1026 16.1353 16.1463C16.1828 16.1574 16.153 16.2228 16.1633 16.2423C16.2267 16.3599 16.3167 16.189 16.3315 16.1858C16.6854 16.1037 16.9562 16.2583 17.3169 16.1847C17.3365 16.1803 17.4877 15.9972 17.5551 16.1543C17.5597 16.1647 17.6264 16.3254 17.6854 16.2155C17.6891 16.2087 17.6475 16.1259 17.72 16.1344C17.7926 16.1428 17.9093 16.0875 18.0091 16.1784C18.0406 16.2071 18.1152 16.3674 18.2094 16.2396C18.2155 16.2307 18.3609 15.9417 18.4128 16.1411C18.4212 16.1739 18.4124 16.3849 18.5248 16.2767C18.5463 16.2557 18.5073 16.2087 18.5639 16.1793C18.6505 16.134 18.7654 16.1905 18.8719 16.0965C18.8905 16.0799 18.9696 15.9367 19.0331 16.0454C19.043 16.0624 19.0241 16.1328 19.0576 16.1407C19.217 16.1785 19.3838 16.1314 19.5456 16.1801C19.6029 16.1973 19.5736 16.3111 19.6334 16.3416C19.6931 16.3721 19.8135 16.4015 19.876 16.3495C19.9385 16.2974 19.8702 16.1159 19.9639 16.1014C19.9759 16.0995 19.9879 16.0978 19.9999 16.0963L19.0962 17C19.0444 16.605 19.1452 16.2135 19.1603 15.8188C19.1626 15.7585 19.0977 15.8085 19.0964 15.7197C19.0936 15.5269 19.0713 15.2518 19.0816 15L19.9999 15.9183C19.8237 15.9111 19.6589 15.888 19.5419 15.8312C19.3141 15.7207 19.6008 15.6366 19.4267 15.5916C19.3427 15.5701 19.2518 15.7811 19.2315 15.7878C19.0334 15.8552 18.8958 15.7618 18.7175 15.7904C18.6806 15.7964 18.7167 15.8819 18.6854 15.886C18.5784 15.9008 18.4659 15.8627 18.3636 15.8697C18.3177 15.873 18.3262 15.9383 18.2839 15.9333C18.1829 15.922 18.0936 15.8945 17.9951 15.8333C17.9861 15.8277 18.0467 15.7465 17.9719 15.7434C17.8509 15.7388 17.7008 15.6784 17.5616 15.7408C17.5203 15.7595 17.5187 15.9088 17.4299 15.8057C17.4113 15.7842 17.4351 15.6049 17.3316 15.7598C17.3143 15.7855 17.1406 15.9944 17.0553 15.8598C17.0328 15.8243 16.9754 15.6777 16.9258 15.7007C16.919 15.7044 16.946 15.7846 16.9049 15.7924C16.7598 15.8186 16.6078 15.81 16.4588 15.8351C16.4191 15.842 16.4783 15.9249 16.419 15.9325C16.2559 15.9535 16.0524 15.9324 15.8929 15.9064C15.8341 15.8967 15.8747 15.8279 15.8705 15.8205C15.8017 15.6988 15.761 15.863 15.7382 15.8726C15.5962 15.9299 15.488 15.8528 15.3572 15.8732C15.321 15.8786 15.3466 15.9569 15.3395 15.9639C15.2649 16.0321 15.3204 15.8915 15.2732 15.876C15.141 15.8321 14.9936 15.8384 14.8599 15.8484C14.8108 15.8522 14.866 15.943 14.8219 15.9453C14.561 15.961 14.2897 15.9523 14.0351 15.9023C13.9872 15.8927 14.0174 15.8228 14.0074 15.8068C13.9385 15.6951 13.8376 15.8475 13.8143 15.862C13.7087 15.9282 13.6677 15.8664 13.5745 15.878C13.1189 15.9354 12.5564 15.8945 12.1264 15.8692C11.566 15.8366 11.1312 15.7701 10.5969 15.7874C10.5629 15.7884 10.5971 15.8814 10.5679 15.8835C10.1899 15.9059 9.81776 15.8695 9.43902 15.8964C9.40794 15.8984 9.45274 15.9866 9.40286 15.9928C9.30054 16.0062 9.17092 16.0014 9.06747 15.9733C9.01701 15.9597 9.08469 15.8841 9.0339 15.872C8.91563 15.8436 8.78886 15.8373 8.66738 15.8515C8.61569 15.8577 8.69368 15.9478 8.62649 15.9489C8.16877 15.9578 7.71925 15.9734 7.25671 15.8566C7.225 15.8486 7.19717 15.6653 7.12975 15.7005C7.12467 15.7513 7.12495 15.8112 7.12273 15.8655C6.45641 15.8948 5.7969 15.8313 5.12871 15.8214C5.10054 15.821 5.14923 15.9181 5.09468 15.9179C4.779 15.9164 4.47246 15.9433 4.14955 15.8468C4.11751 15.8374 4.13395 15.6666 4.03954 15.6924C4.02288 15.6971 3.88068 15.7199 3.84392 15.757C3.83892 15.7626 3.86487 15.8423 3.81905 15.8446C3.55276 15.8567 3.27371 15.8385 3.00789 15.7898C2.96499 15.7818 3.01067 15.6969 2.98012 15.6905C2.76336 15.6454 2.5276 15.7099 2.32048 15.6328C2.18184 15.5809 2.23317 15.4342 2.1595 15.2897C2.14908 15.2693 2.06323 15.2661 2.05879 15.182C2.04739 14.9707 2.08897 14.7392 2.07191 14.514C2.06831 14.4654 1.95333 14.5177 2.0214 14.4004C2.02616 14.3926 2.10952 14.3537 2.13005 14.3139C2.14434 14.2864 2.11858 14.2009 2.14775 14.1657C2.17691 14.1305 2.20896 14.2022 2.25731 14.1608C2.30563 14.1189 2.28438 14.0217 2.3809 14.0102ZM13.181 16.6389C13.2573 16.7205 13.2686 16.4215 13.186 16.493C13.182 16.4968 13.1771 16.6349 13.181 16.6389ZM3.94774 16.6861C4.04751 16.818 4.11578 16.6241 4.0454 16.5222C3.97503 16.4204 3.91735 16.6461 3.94774 16.6861ZM2.91319 16.7824C3.02979 16.8865 3.04815 16.4623 2.92326 16.5481C2.91601 16.5529 2.90638 16.7764 2.91319 16.7824ZM2.50114 15.2486C2.50009 15.2446 2.43838 15.2407 2.4369 15.2447C2.40404 15.3397 2.52744 15.3473 2.50114 15.2486ZM2.11261 16.8867C2.05523 16.9231 2.12146 17.0279 2.19281 16.9827C2.2502 16.9463 2.18397 16.8413 2.11261 16.8867ZM17.1619 16.9581C17.1631 16.9626 17.2073 16.9666 17.2064 16.9414C17.2034 16.8602 17.1419 16.8831 17.1619 16.9581ZM2.10772 15.1418C2.09176 15.3996 1.74141 15.5559 1.78094 15.2752C1.78809 15.2244 1.89267 15.3848 1.92425 15.3201C1.9818 15.2017 1.76182 15.123 1.8797 15.0022C1.90127 14.9803 2.10892 15.1266 2.10772 15.1418C2.10789 15.142 2.10756 15.1416 2.10772 15.1418ZM13.225 16.9981C13.2265 17.0021 13.2877 17.0058 13.2892 17.0019C13.3224 16.907 13.199 16.8994 13.225 16.9981ZM19.7435 17.143C19.7469 17.1515 19.889 17.1593 19.8937 17.1516C19.9678 16.9963 19.6805 16.9799 19.7435 17.143ZM9.10019 17.217C9.03336 17.3125 8.95311 17.3237 8.89984 17.2037C8.96625 17.2101 9.03341 17.2111 9.10019 17.217Z" fill="#284C43"/>
</g>
<defs>
<clipPath id="clip0_12_16688">
<rect width="22" height="22" fill="white"/>
</clipPath>
</defs>
</svg>
